<?xml version="1.0" encoding="UTF-8"?>
<!DOCTYPE svg PUBLIC "-//W3C//DTD SVG 1.1//EN" "http://www.w3.org/Graphics/SVG/1.1/DTD/svg11.dtd">
<svg xmlns="http://www.w3.org/2000/svg" version="1.1" width="512px" height="512px" style="shape-rendering:geometricPrecision; text-rendering:geometricPrecision; image-rendering:optimizeQuality; fill-rule:evenodd; clip-rule:evenodd" xmlns:xlink="http://www.w3.org/1999/xlink">
<g><path style="opacity:0.992" fill="#eeeeee" d="M 510.5,29.5 C 509.876,31.754 508.543,33.4206 506.5,34.5C 506.44,33.9569 506.107,33.6236 505.5,33.5C 369.287,137.76 232.953,241.76 96.5,345.5C 63.9972,325.083 31.6638,304.416 -0.5,283.5C -0.5,282.833 -0.5,282.167 -0.5,281.5C 169.71,197.228 340.044,113.228 510.5,29.5 Z"/></g>
<g><path style="opacity:0.996" fill="#eeefee" d="M 511.5,28.5 C 511.5,29.8333 511.5,31.1667 511.5,32.5C 452.871,181.871 394.704,331.537 337,481.5C 336.586,481.957 336.086,482.291 335.5,482.5C 294.807,462.153 254.14,441.82 213.5,421.5C 196.515,412.006 179.182,403.006 161.5,394.5C 276.528,274.474 391.528,154.474 506.5,34.5C 508.543,33.4206 509.876,31.754 510.5,29.5C 510.5,28.8333 510.833,28.5 511.5,28.5 Z"/></g>
<g><path style="opacity:0.996" fill="#dbd8dd" d="M 506.5,34.5 C 391.528,154.474 276.528,274.474 161.5,394.5C 160.502,420.661 160.169,446.995 160.5,473.5C 138.657,431.146 117.323,388.48 96.5,345.5C 232.953,241.76 369.287,137.76 505.5,33.5C 506.107,33.6236 506.44,33.9569 506.5,34.5 Z"/></g>
<g><path style="opacity:0.992" fill="#bbbbcd" d="M 161.5,394.5 C 179.182,403.006 196.515,412.006 213.5,421.5C 197.066,439.436 180.066,456.936 162.5,474C 161.563,474.692 160.897,474.525 160.5,473.5C 160.169,446.995 160.502,420.661 161.5,394.5 Z"/></g>
</svg>
