<!-- <?xml version="1.0" standalone="no"?>
<!DOCTYPE svg PUBLIC "-//W3C//DTD SVG 20010904//EN"
 "http://www.w3.org/TR/2001/REC-SVG-20010904/DTD/svg10.dtd"> -->
<svg version="1.0" xmlns="http://www.w3.org/2000/svg"
 width="512.000000pt" height="512.000000pt" viewBox="0 0 512.000000 512.000000"
 preserveAspectRatio="xMidYMid meet">

<g transform="translate(0.000000,512.000000) scale(0.100000,-0.100000)"
fill="#000000" stroke="none">
<path d="M640 4747 c-108 -24 -180 -83 -229 -187 -23 -49 -26 -67 -26 -165 l0
-110 214 -710 c117 -390 216 -730 220 -755 l6 -45 1115 -5 c1229 -6 1139 -1
1202 -67 95 -100 68 -262 -57 -331 -27 -16 -130 -17 -1145 -22 l-1115 -5 -6
-45 c-4 -25 -103 -364 -220 -755 l-214 -710 0 -110 c0 -98 3 -116 26 -165 51
-109 129 -168 250 -191 143 -26 23 -81 2056 935 1823 911 1833 916 1896 978
39 38 75 87 93 123 26 53 29 70 29 155 0 85 -3 102 -29 155 -18 36 -54 85 -93
122 -63 63 -75 69 -1882 972 -1000 500 -1842 916 -1872 925 -80 22 -157 27
-219 13z"/>
</g>
</svg>
