<?xml version="1.0" standalone="no"?>
<!DOCTYPE svg PUBLIC "-//W3C//DTD SVG 20010904//EN"
 "http://www.w3.org/TR/2001/REC-SVG-20010904/DTD/svg10.dtd">
<svg version="1.0" xmlns="http://www.w3.org/2000/svg"
 width="512.000000pt" height="512.000000pt" viewBox="0 0 512.000000 512.000000"
 preserveAspectRatio="xMidYMid meet">

<g transform="translate(0.000000,512.000000) scale(0.100000,-0.100000)"
fill="#000000" stroke="none">
<path d="M363 5105 c-111 -30 -189 -88 -254 -188 -72 -112 -69 -33 -69 -1585
0 -889 4 -1409 10 -1443 23 -125 116 -252 222 -302 86 -42 88 -41 109 33 25
88 24 94 -15 108 -18 7 -54 34 -79 61 -83 89 -78 -25 -75 1562 l3 1404 23 47
c13 27 42 64 64 83 83 70 -58 66 1893 63 l1760 -3 40 -22 c91 -49 135 -121
142 -235 l6 -78 83 0 84 0 0 63 c0 128 -48 243 -135 326 -60 57 -129 94 -203
110 -38 8 -544 11 -1805 10 -1477 0 -1760 -3 -1804 -14z"/>
<path d="M380 4695 l0 -85 85 0 85 0 0 85 0 85 -85 0 -85 0 0 -85z"/>
<path d="M730 4695 l0 -85 85 0 85 0 0 85 0 85 -85 0 -85 0 0 -85z"/>
<path d="M1070 4695 l0 -85 85 0 85 0 0 85 0 85 -85 0 -85 0 0 -85z"/>
<path d="M901 4429 c-181 -35 -317 -184 -341 -374 -7 -53 -10 -541 -8 -1465 4
-1555 -3 -1426 79 -1549 46 -69 122 -129 208 -163 56 -23 59 -23 654 -26 l597
-3 0 85 0 85 -582 3 c-567 3 -584 4 -628 24 -56 26 -107 76 -131 129 -18 38
-19 107 -19 1468 0 1551 -3 1455 54 1530 14 19 50 47 78 63 l53 29 1770 0
c1612 0 1773 -1 1806 -16 51 -23 107 -75 132 -123 l22 -41 0 -1440 0 -1440
-27 -49 -28 -48 47 -42 c80 -70 79 -70 103 -37 11 17 33 56 48 88 l27 58 0
1470 0 1470 -32 68 c-38 79 -114 163 -181 200 -109 59 -17 57 -1917 56 -957
-1 -1760 -5 -1784 -10z"/>
<path d="M900 4015 l0 -85 85 0 86 0 -3 83 -3 82 -82 3 -83 3 0 -86z"/>
<path d="M1240 4015 l0 -85 85 0 86 0 -3 83 -3 82 -82 3 -83 3 0 -86z"/>
<path d="M1580 4015 l0 -85 85 0 85 0 0 85 0 85 -85 0 -85 0 0 -85z"/>
<path d="M3460 3354 l0 -396 -32 6 c-18 3 -56 9 -85 13 l-53 6 0 298 0 299
-90 0 -90 0 0 -299 0 -298 -53 -6 c-29 -4 -67 -10 -85 -13 l-32 -6 0 141 0
141 -85 0 -85 0 0 -167 0 -168 -77 -35 c-42 -19 -80 -36 -85 -38 -4 -2 -8 109
-8 247 l0 251 -85 0 -85 0 0 -312 0 -312 -85 -87 -85 -86 0 313 0 314 -85 0
-85 0 0 -461 0 -462 -29 -91 c-40 -126 -54 -231 -50 -390 l4 -136 -557 0 -558
0 0 -85 0 -85 578 0 579 0 12 -41 c45 -149 157 -328 290 -460 217 -217 481
-334 782 -346 251 -10 455 40 667 164 41 24 77 43 80 43 4 0 189 -182 412
-405 296 -295 412 -405 428 -405 13 0 35 6 50 14 33 18 275 262 292 294 6 13
9 36 5 50 -4 17 -153 174 -417 438 l-411 412 41 96 c23 52 44 107 48 121 6 24
10 25 75 25 l69 0 0 85 0 85 -47 0 -48 0 0 178 c0 184 -8 242 -55 376 -19 56
-20 82 -20 478 l0 418 -85 0 -85 0 0 -269 0 -268 -85 86 -85 87 0 352 0 352
-85 0 -85 0 0 -291 c0 -161 -4 -289 -9 -287 -4 2 -43 19 -84 38 l-76 35 -1
423 0 422 -85 0 -85 0 0 -396z m-161 -544 c129 -14 248 -48 359 -104 108 -55
167 -97 250 -178 160 -156 253 -328 297 -547 23 -112 16 -332 -13 -443 -86
-319 -303 -567 -606 -693 -484 -200 -1056 12 -1296 480 -85 167 -116 314 -107
517 7 162 30 255 97 393 103 213 265 375 475 476 139 67 242 93 426 108 9 0
62 -4 118 -9z m1216 -2110 l360 -360 -68 -67 -67 -68 -359 359 -359 359 61 69
c34 37 64 68 67 68 3 0 167 -162 365 -360z"/>
<path d="M3112 2638 c-358 -30 -673 -313 -746 -670 -20 -96 -21 -255 -1 -346
56 -267 224 -481 470 -598 139 -66 197 -78 365 -78 168 0 226 12 365 78 247
117 416 333 471 603 26 123 15 301 -24 423 -94 287 -332 507 -616 569 -110 24
-174 29 -284 19z m0 -505 l3 -338 85 0 85 0 3 337 2 337 33 -6 c17 -3 55 -13
82 -22 l50 -16 3 -317 2 -318 85 0 85 0 0 268 1 267 62 -66 c74 -78 119 -151
154 -251 23 -64 26 -90 27 -203 1 -71 -2 -142 -7 -157 l-7 -28 -660 0 -660 0
-7 28 c-5 15 -8 83 -8 152 0 104 4 137 23 195 34 102 86 188 158 264 l63 66 1
-267 0 -268 85 0 85 0 0 314 c0 230 3 317 12 322 10 7 133 42 150 43 4 1 9
-151 10 -336z m657 -715 c-136 -196 -344 -308 -569 -308 -225 0 -433 112 -569
308 l-22 32 591 0 591 0 -22 -32z"/>
<path d="M1410 2305 l0 -515 85 0 85 0 0 515 0 515 -85 0 -85 0 0 -515z"/>
<path d="M1750 2175 l0 -385 85 0 85 0 0 385 0 385 -85 0 -85 0 0 -385z"/>
<path d="M1070 2045 l0 -255 85 0 85 0 0 255 0 255 -85 0 -85 0 0 -255z"/>
</g>
</svg>
